HIERARCHY
ROOT Pelvis
{
	OFFSET 0.000000 0.000000 0.000000
	CHANNELS 6 Xposition Yposition Zposition Xrotation Yrotation Zrotation
	JOINT LeftUpLeg_virtual
	{
		OFFSET 0.000000 0.000000 0.000000
		CHANNELS 3 Xrotation Yrotation Zrotation
		JOINT LeftUpLeg
		{
			OFFSET 18.735201 -5.666702 -4.541200
			CHANNELS 3 Xrotation Yrotation Zrotation
			JOINT LeftLeg
			{
				OFFSET -0.021200 -31.938179 0.493100
				CHANNELS 3 Xrotation Yrotation Zrotation
				JOINT LeftFoot
				{
					OFFSET 0.021200 -31.938179 -4.336299
					CHANNELS 3 Xrotation Yrotation Zrotation
					JOINT LeftToeBase
					{
						OFFSET 0.943001 -26.722000 15.023500
						CHANNELS 3 Xrotation Yrotation Zrotation
						End Site
						{
							OFFSET 0 0 0
						}
					}
				}
			}
		}
	}
	JOINT RightUpLeg_virtual
	{
		OFFSET 0.000000 0.000000 0.000000
		CHANNELS 3 Xrotation Yrotation Zrotation
		JOINT RightUpLeg
		{
			OFFSET -18.735201 -5.666702 -4.541200
			CHANNELS 3 Xrotation Yrotation Zrotation
			JOINT RightLeg
			{
				OFFSET 0.018946 -31.938133 0.493100
				CHANNELS 3 Xrotation Yrotation Zrotation
				JOINT RightFoot
				{
					OFFSET -0.018946 -31.938126 -4.336299
					CHANNELS 3 Xrotation Yrotation Zrotation
					JOINT RightToeBase
					{
						OFFSET -0.943001 -26.722004 15.023500
						CHANNELS 3 Xrotation Yrotation Zrotation
						End Site
						{
							OFFSET 0 0 0
						}
					}
				}
			}
		}
	}
	JOINT Hips_virtual
	{
		OFFSET 0.000000 0.000000 0.000000
		CHANNELS 3 Xrotation Yrotation Zrotation
		JOINT Hips
		{
			OFFSET -0.000000 -0.000000 -0.000000
			CHANNELS 3 Xrotation Yrotation Zrotation
			JOINT Spine
			{
				OFFSET 0.000000 10.199997 -0.299500
				CHANNELS 3 Xrotation Yrotation Zrotation
				JOINT Spine1
				{
					OFFSET 0.000000 11.900002 -1.516600
					CHANNELS 3 Xrotation Yrotation Zrotation
					JOINT Spine2
					{
						OFFSET 0.000000 13.600006 -2.842500
						CHANNELS 3 Xrotation Yrotation Zrotation
						JOINT Neck_virtual
						{
							OFFSET 0.000000 0.000000 0.000000
							CHANNELS 3 Xrotation Yrotation Zrotation
							JOINT Neck
							{
								OFFSET 0.000000 9.624100 -2.890100
								CHANNELS 3 Xrotation Yrotation Zrotation
								JOINT Head
								{
									OFFSET 0.000000 14.068802 -1.351900
									CHANNELS 3 Xrotation Yrotation Zrotation
									End Site
									{
										OFFSET 0 0 0
									}
								}
							}
						}
						JOINT LeftShoulder_virtual
						{
							OFFSET 0.000000 0.000000 0.000000
							CHANNELS 3 Xrotation Yrotation Zrotation
							JOINT LeftShoulder
							{
								OFFSET 15.263000 10.923401 -0.547700
								CHANNELS 3 Xrotation Yrotation Zrotation
								JOINT LeftArm
								{
									OFFSET 25.438599 -2.830597 -13.032500
									CHANNELS 3 Xrotation Yrotation Zrotation
									JOINT LeftForeArm
									{
										OFFSET 29.960503 0.000000 0.000000
										CHANNELS 3 Xrotation Yrotation Zrotation
										JOINT LeftHand
										{
											OFFSET 27.849251 0.000000 0.000000
											CHANNELS 3 Xrotation Yrotation Zrotation
											End Site
											{
												OFFSET 0 0 0
											}
										}
									}
								}
							}
						}
						JOINT RightShoulder_virtual
						{
							OFFSET 0.000000 0.000000 0.000000
							CHANNELS 3 Xrotation Yrotation Zrotation
							JOINT RightShoulder
							{
								OFFSET -15.263000 10.923401 -0.547700
								CHANNELS 3 Xrotation Yrotation Zrotation
								JOINT RightArm
								{
									OFFSET -25.438599 -2.830597 -13.032500
									CHANNELS 3 Xrotation Yrotation Zrotation
									JOINT RightForeArm
									{
										OFFSET -29.960503 0.000000 0.000000
										CHANNELS 3 Xrotation Yrotation Zrotation
										JOINT RightHand
										{
											OFFSET -27.849251 0.000000 0.000000
											CHANNELS 3 Xrotation Yrotation Zrotation
											End Site
											{
												OFFSET 0 0 0
											}
										}
									}
								}
							}
						}
					}
				}
			}
		}
	}
}
MOTION
Frames: 4
Frame Time: 0.03333333
-3.916322 83.274239 2.332586 0.000000 0.000000 0.000000 3.004777 -58.203204 6.441630 -38.300760 6.320368 29.635484 47.031132 -9.811646 -10.643191 -10.044842 -1.887268 -11.913330 0.000000 0.000000 0.000000 3.004777 -58.203204 6.441630 -34.547930 -3.820889 -30.692234 55.034908 4.454544 -7.825822 -22.924355 0.235357 25.816993 0.000000 0.000000 0.000000 3.004777 -58.203204 6.441630 0.000000 0.000000 0.000000 11.191379 0.081165 -2.660826 8.434585 0.027695 -5.592316 0.000000 0.000000 0.000000 8.457044 0.027884 -5.591871 -3.775685 5.323479 1.581316 0.000000 0.000000 0.000000 8.457044 0.027884 -5.591871 -6.221674 -11.503784 -4.023842 -23.061664 9.569069 -36.639737 0.046304 -43.170825 -0.011011 0.000000 0.000000 0.000000 8.457044 0.027884 -5.591871 -5.488246 10.658257 2.466549 -41.473158 -26.756190 30.079463 -155.046346 68.136068 156.693364 0.000000 0.000000 0.000000 
-3.906403 83.274353 2.365601 0.000000 0.000000 0.000000 3.028282 -58.173022 6.461461 -38.336657 6.322120 29.607822 47.062421 -9.831695 -10.650053 -10.063853 -1.890905 -11.871532 0.000000 0.000000 0.000000 3.028282 -58.173022 6.461461 -34.513154 -3.824509 -30.721754 54.980902 4.435130 -7.822679 -22.909146 0.227982 25.859195 0.000000 0.000000 0.000000 3.028282 -58.173022 6.461461 0.000000 -0.000002 0.000000 11.191393 0.079977 -2.664675 8.434583 0.027696 -5.592321 0.000000 0.000000 0.000000 8.457057 0.027857 -5.591858 -3.774271 5.317995 1.585857 0.000000 0.000000 0.000000 8.457057 0.027857 -5.591858 -6.224957 -11.506073 -4.040196 -23.270321 9.617856 -36.667871 0.069786 -43.129530 0.031124 0.000000 0.000000 0.000000 8.457057 0.027857 -5.591858 -5.494063 10.657941 2.495527 -41.054430 -26.626314 30.531601 -151.189789 67.351765 152.484233 0.000000 0.000000 0.000000 
-3.877141 83.277420 2.456434 0.000000 0.000000 0.000000 3.049476 -58.142293 6.481984 -38.380182 6.334603 29.540001 47.163098 -9.852661 -10.667173 -10.142986 -1.895500 -11.776656 0.000000 0.000000 0.000000 3.049476 -58.142293 6.481984 -34.433009 -3.830319 -30.811246 54.835931 4.442501 -7.810920 -22.847572 0.219101 25.949705 0.000000 0.000000 0.000000 3.049476 -58.142293 6.481984 0.000000 0.000001 0.000000 11.191443 0.076984 -2.676149 8.427934 0.021792 -5.590526 0.000000 0.000000 0.000000 8.450536 0.024358 -5.590740 -3.769860 5.302081 1.598830 0.000000 0.000000 0.000000 8.450536 0.024358 -5.590740 -6.234551 -11.512579 -4.088056 -23.549884 9.594447 -36.642565 0.138498 -42.979262 0.153761 0.000000 0.000000 0.000000 8.450536 0.024358 -5.590740 -5.511178 10.663432 2.580821 -40.669433 -26.535575 30.926588 -149.908104 67.121526 150.633675 0.000000 0.000000 0.000000 
-3.829815 83.283348 2.601110 0.000000 0.000000 0.000000 3.070050 -58.111379 6.504273 -38.430312 6.359036 29.433481 47.326309 -9.873119 -10.693354 -10.279047 -1.901396 -11.628284 0.000000 0.000000 0.000000 3.070050 -58.111379 6.504273 -34.308973 -3.838032 -30.954168 54.602762 4.470785 -7.790913 -22.742469 0.209398 26.083738 0.000000 0.000000 0.000000 3.070050 -58.111379 6.504273 0.000000 -0.000004 0.000000 11.191221 0.068386 -2.693967 8.417021 0.011614 -5.587464 0.000000 0.000000 0.000000 8.439833 0.017446 -5.588561 -3.762932 5.276371 1.619564 0.000000 0.000000 0.000000 8.439833 0.017446 -5.588561 -6.250114 -11.523035 -4.165731 -23.890543 9.502019 -36.578904 0.247195 -42.732303 0.348578 0.000000 0.000000 0.000000 8.439833 0.017446 -5.588561 -5.532799 10.672746 2.720146 -40.331809 -26.475733 31.254082 -148.395586 66.939173 148.541889 0.000000 0.000000 0.000000 
